<mxfile host="app.diagrams.net" modified="2023-04-03T15:43:39.308Z" agent="Mozilla/5.0 (Windows NT 10.0; Win64; x64) AppleWebKit/537.36 (KHTML, like Gecko) Chrome/110.0.0.0 Safari/537.36 OPR/96.0.0.0" etag="vqkIzc5OMkA_6N0IG9_c" version="21.1.1" type="device">
  <diagram name="PÃ¡gina-1" id="vAhomKV5QfZm1AqKqGjI">
    <mxGraphModel dx="1041" dy="452" grid="1" gridSize="10" guides="1" tooltips="1" connect="1" arrows="1" fold="1" page="1" pageScale="1" pageWidth="827" pageHeight="1169" math="0" shadow="0">
      <root>
        <mxCell id="0" />
        <mxCell id="1" parent="0" />
        <mxCell id="XlvQJNKc5s7t58uYUKSb-1" value="" style="rounded=0;whiteSpace=wrap;html=1;" parent="1" vertex="1">
          <mxGeometry x="540" y="140" width="120" height="90" as="geometry" />
        </mxCell>
        <mxCell id="XlvQJNKc5s7t58uYUKSb-2" value="" style="rounded=0;whiteSpace=wrap;html=1;" parent="1" vertex="1">
          <mxGeometry x="240" y="140" width="230" height="95" as="geometry" />
        </mxCell>
        <mxCell id="XlvQJNKc5s7t58uYUKSb-6" value="" style="rounded=0;whiteSpace=wrap;html=1;" parent="1" vertex="1">
          <mxGeometry x="540" y="170" width="120" height="70" as="geometry" />
        </mxCell>
        <mxCell id="XlvQJNKc5s7t58uYUKSb-9" value="&lt;font style=&quot;font-size: 14px;&quot;&gt;&amp;lt;&amp;lt;Interface&amp;gt;&amp;gt;&lt;br&gt;Observer&lt;/font&gt;" style="text;html=1;strokeColor=none;fillColor=none;align=center;verticalAlign=middle;whiteSpace=wrap;rounded=0;" parent="1" vertex="1">
          <mxGeometry x="570" y="140" width="60" height="30" as="geometry" />
        </mxCell>
        <mxCell id="XlvQJNKc5s7t58uYUKSb-11" value="Publisher" style="text;html=1;strokeColor=none;fillColor=default;align=center;verticalAlign=middle;whiteSpace=wrap;rounded=0;fontSize=14;" parent="1" vertex="1">
          <mxGeometry x="325" y="145" width="60" height="30" as="geometry" />
        </mxCell>
        <mxCell id="XlvQJNKc5s7t58uYUKSb-12" value="" style="rounded=0;whiteSpace=wrap;html=1;fontSize=14;" parent="1" vertex="1">
          <mxGeometry x="240" y="175" width="230" height="65" as="geometry" />
        </mxCell>
        <mxCell id="XlvQJNKc5s7t58uYUKSb-13" value="" style="rounded=0;whiteSpace=wrap;html=1;fontSize=14;" parent="1" vertex="1">
          <mxGeometry x="240" y="210" width="230" height="80" as="geometry" />
        </mxCell>
        <mxCell id="XlvQJNKc5s7t58uYUKSb-14" value="" style="rounded=0;whiteSpace=wrap;html=1;fontSize=14;" parent="1" vertex="1">
          <mxGeometry x="500" y="280" width="120" height="60" as="geometry" />
        </mxCell>
        <mxCell id="XlvQJNKc5s7t58uYUKSb-15" value="- nome: String&lt;br&gt;+ update(context)" style="rounded=0;whiteSpace=wrap;html=1;fontSize=14;align=left;" parent="1" vertex="1">
          <mxGeometry x="500" y="300" width="120" height="40" as="geometry" />
        </mxCell>
        <mxCell id="XlvQJNKc5s7t58uYUKSb-16" value="" style="endArrow=block;html=1;rounded=0;fontSize=14;entryX=0.5;entryY=1;entryDx=0;entryDy=0;exitX=0.5;exitY=0;exitDx=0;exitDy=0;endFill=0;dashed=1;strokeWidth=1;endSize=8;" parent="1" source="XlvQJNKc5s7t58uYUKSb-14" target="XlvQJNKc5s7t58uYUKSb-6" edge="1">
          <mxGeometry width="50" height="50" relative="1" as="geometry">
            <mxPoint x="500" y="360" as="sourcePoint" />
            <mxPoint x="550" y="310" as="targetPoint" />
            <Array as="points" />
          </mxGeometry>
        </mxCell>
        <mxCell id="XlvQJNKc5s7t58uYUKSb-17" value="Vaca" style="text;html=1;strokeColor=none;fillColor=none;align=center;verticalAlign=middle;whiteSpace=wrap;rounded=0;fontSize=14;" parent="1" vertex="1">
          <mxGeometry x="530" y="280" width="60" height="30" as="geometry" />
        </mxCell>
        <mxCell id="XlvQJNKc5s7t58uYUKSb-19" value="+ update(context)" style="text;html=1;strokeColor=none;fillColor=none;align=center;verticalAlign=middle;whiteSpace=wrap;rounded=0;fontSize=14;" parent="1" vertex="1">
          <mxGeometry x="540" y="170" width="120" height="30" as="geometry" />
        </mxCell>
        <mxCell id="XlvQJNKc5s7t58uYUKSb-20" value="-subscriber: List&amp;lt;Observer&amp;gt;" style="text;html=1;strokeColor=none;fillColor=none;align=left;verticalAlign=middle;whiteSpace=wrap;rounded=0;fontSize=14;" parent="1" vertex="1">
          <mxGeometry x="240" y="170" width="190" height="30" as="geometry" />
        </mxCell>
        <mxCell id="H-21gjx1aR0XNDG5zHc--1" value="&lt;font style=&quot;font-size: 14px;&quot;&gt;- mainState: String&lt;/font&gt;" style="text;html=1;strokeColor=none;fillColor=none;align=left;verticalAlign=middle;whiteSpace=wrap;rounded=0;fontSize=16;" parent="1" vertex="1">
          <mxGeometry x="240" y="190" width="140" height="20" as="geometry" />
        </mxCell>
        <mxCell id="H-21gjx1aR0XNDG5zHc--2" value="+ subscribe(s: Observer)&lt;br&gt;+ unsubscribe(s: Observer)&lt;br&gt;+ notifySubscribers()" style="text;html=1;strokeColor=none;fillColor=none;align=left;verticalAlign=middle;whiteSpace=wrap;rounded=0;fontSize=14;" parent="1" vertex="1">
          <mxGeometry x="240" y="220" width="190" height="50" as="geometry" />
        </mxCell>
        <mxCell id="H-21gjx1aR0XNDG5zHc--3" value="" style="endArrow=openThin;html=1;rounded=0;fontSize=14;startSize=8;endSize=10;curved=1;entryX=0;entryY=0.25;entryDx=0;entryDy=0;endFill=0;startArrow=none;startFill=0;dashed=1;dashPattern=8 8;exitX=1;exitY=0;exitDx=0;exitDy=0;" parent="1" source="XlvQJNKc5s7t58uYUKSb-12" target="XlvQJNKc5s7t58uYUKSb-1" edge="1">
          <mxGeometry width="50" height="50" relative="1" as="geometry">
            <mxPoint x="470" y="210" as="sourcePoint" />
            <mxPoint x="400" y="240" as="targetPoint" />
          </mxGeometry>
        </mxCell>
        <mxCell id="H-21gjx1aR0XNDG5zHc--4" value="" style="rounded=0;whiteSpace=wrap;html=1;fontSize=14;" parent="1" vertex="1">
          <mxGeometry x="670" y="280" width="120" height="60" as="geometry" />
        </mxCell>
        <mxCell id="H-21gjx1aR0XNDG5zHc--5" value="- nome: String&lt;br&gt;+ update(context)" style="rounded=0;whiteSpace=wrap;html=1;fontSize=14;align=left;" parent="1" vertex="1">
          <mxGeometry x="670" y="300" width="120" height="40" as="geometry" />
        </mxCell>
        <mxCell id="H-21gjx1aR0XNDG5zHc--6" value="Galinha" style="text;html=1;strokeColor=none;fillColor=none;align=center;verticalAlign=middle;whiteSpace=wrap;rounded=0;fontSize=14;" parent="1" vertex="1">
          <mxGeometry x="700" y="280" width="60" height="30" as="geometry" />
        </mxCell>
        <mxCell id="H-21gjx1aR0XNDG5zHc--8" value="" style="endArrow=block;html=1;rounded=0;dashed=1;fontSize=14;startSize=8;endSize=10;curved=1;entryX=0.75;entryY=1;entryDx=0;entryDy=0;exitX=0.5;exitY=0;exitDx=0;exitDy=0;endFill=0;" parent="1" source="H-21gjx1aR0XNDG5zHc--4" target="XlvQJNKc5s7t58uYUKSb-6" edge="1">
          <mxGeometry width="50" height="50" relative="1" as="geometry">
            <mxPoint x="480" y="290" as="sourcePoint" />
            <mxPoint x="530" y="240" as="targetPoint" />
            <Array as="points">
              <mxPoint x="670" y="260" />
            </Array>
          </mxGeometry>
        </mxCell>
      </root>
    </mxGraphModel>
  </diagram>
</mxfile>
